<mxfile host="www.draw.io" modified="2020-05-05T03:04:27.400Z" agent="5.0 (Macintosh; Intel Mac OS X 10_13_1) AppleWebKit/537.36 (KHTML, like Gecko) Chrome/81.0.4044.129 Safari/537.36" etag="dTe8MkgmtpU0wOACb_TI" version="13.0.4" type="github">
  <diagram id="r0eLzTe1JWhYGy0Mqwi3" name="第 1 页">
    <mxGraphModel dx="946" dy="614" grid="1" gridSize="10" guides="1" tooltips="1" connect="1" arrows="1" fold="1" page="1" pageScale="1" pageWidth="3300" pageHeight="4681" math="0" shadow="0">
      <root>
        <mxCell id="0" />
        <mxCell id="1" parent="0" />
        <mxCell id="cYOcM08qNs0LMvxDeE_9-64" value="" style="verticalLabelPosition=bottom;verticalAlign=top;html=1;shape=mxgraph.basic.drop;fillColor=#ffe6cc;rotation=-105;strokeColor=#d79b00;" vertex="1" parent="1">
          <mxGeometry x="446.5" y="422" width="13.5" height="75" as="geometry" />
        </mxCell>
        <mxCell id="cYOcM08qNs0LMvxDeE_9-63" value="" style="verticalLabelPosition=bottom;verticalAlign=top;html=1;shape=mxgraph.basic.drop;fillColor=#ffe6cc;rotation=60;strokeColor=#d79b00;" vertex="1" parent="1">
          <mxGeometry x="381.5" y="435" width="13.5" height="75" as="geometry" />
        </mxCell>
        <mxCell id="cYOcM08qNs0LMvxDeE_9-60" value="" style="whiteSpace=wrap;html=1;shape=mxgraph.basic.pointed_oval;fillColor=#ffe6cc;strokeColor=#d79b00;" vertex="1" parent="1">
          <mxGeometry x="430" y="520" width="25" height="90" as="geometry" />
        </mxCell>
        <mxCell id="cYOcM08qNs0LMvxDeE_9-59" value="" style="whiteSpace=wrap;html=1;shape=mxgraph.basic.pointed_oval;fillColor=#ffe6cc;strokeColor=#d79b00;" vertex="1" parent="1">
          <mxGeometry x="385" y="520" width="25" height="90" as="geometry" />
        </mxCell>
        <mxCell id="cYOcM08qNs0LMvxDeE_9-1" value="" style="ellipse;shape=cloud;whiteSpace=wrap;html=1;fillColor=#dae8fc;strokeColor=#6c8ebf;" vertex="1" parent="1">
          <mxGeometry x="110" y="50" width="120" height="80" as="geometry" />
        </mxCell>
        <mxCell id="cYOcM08qNs0LMvxDeE_9-3" value="" style="ellipse;shape=cloud;whiteSpace=wrap;html=1;fillColor=#dae8fc;strokeColor=#6c8ebf;" vertex="1" parent="1">
          <mxGeometry x="280" y="70" width="120" height="80" as="geometry" />
        </mxCell>
        <mxCell id="cYOcM08qNs0LMvxDeE_9-4" value="" style="ellipse;shape=cloud;whiteSpace=wrap;html=1;fillColor=#dae8fc;strokeColor=#6c8ebf;" vertex="1" parent="1">
          <mxGeometry x="440" y="40" width="120" height="80" as="geometry" />
        </mxCell>
        <mxCell id="cYOcM08qNs0LMvxDeE_9-5" value="" style="ellipse;shape=cloud;whiteSpace=wrap;html=1;fillColor=#dae8fc;strokeColor=#6c8ebf;" vertex="1" parent="1">
          <mxGeometry x="540" y="120" width="120" height="80" as="geometry" />
        </mxCell>
        <mxCell id="cYOcM08qNs0LMvxDeE_9-6" value="" style="ellipse;shape=cloud;whiteSpace=wrap;html=1;fillColor=#dae8fc;strokeColor=#6c8ebf;" vertex="1" parent="1">
          <mxGeometry x="690" y="60" width="120" height="80" as="geometry" />
        </mxCell>
        <mxCell id="cYOcM08qNs0LMvxDeE_9-7" value="" style="ellipse;shape=cloud;whiteSpace=wrap;html=1;fillColor=#dae8fc;strokeColor=#6c8ebf;" vertex="1" parent="1">
          <mxGeometry x="830" y="90" width="120" height="80" as="geometry" />
        </mxCell>
        <mxCell id="cYOcM08qNs0LMvxDeE_9-8" value="" style="shape=cylinder;whiteSpace=wrap;html=1;boundedLbl=1;backgroundOutline=1;rotation=0;fillColor=#990000;" vertex="1" parent="1">
          <mxGeometry x="210" y="290" width="60" height="355" as="geometry" />
        </mxCell>
        <mxCell id="cYOcM08qNs0LMvxDeE_9-11" value="" style="shape=cylinder;whiteSpace=wrap;html=1;boundedLbl=1;backgroundOutline=1;fillColor=#990000;" vertex="1" parent="1">
          <mxGeometry x="210" y="280" width="60" height="80" as="geometry" />
        </mxCell>
        <mxCell id="cYOcM08qNs0LMvxDeE_9-12" value="Text" style="text;html=1;align=center;verticalAlign=middle;resizable=0;points=[];autosize=1;" vertex="1" parent="1">
          <mxGeometry x="315" y="342" width="40" height="20" as="geometry" />
        </mxCell>
        <mxCell id="cYOcM08qNs0LMvxDeE_9-16" value="" style="shape=cylinder;whiteSpace=wrap;html=1;boundedLbl=1;backgroundOutline=1;fillColor=#990000;" vertex="1" parent="1">
          <mxGeometry x="570" y="360" width="60" height="270" as="geometry" />
        </mxCell>
        <mxCell id="cYOcM08qNs0LMvxDeE_9-18" value="" style="shape=cylinder;whiteSpace=wrap;html=1;boundedLbl=1;backgroundOutline=1;fillColor=#990000;" vertex="1" parent="1">
          <mxGeometry x="570" y="350" width="60" height="80" as="geometry" />
        </mxCell>
        <mxCell id="cYOcM08qNs0LMvxDeE_9-19" value="" style="shape=cylinder;whiteSpace=wrap;html=1;boundedLbl=1;backgroundOutline=1;fillColor=#990000;" vertex="1" parent="1">
          <mxGeometry x="570" y="270" width="60" height="110" as="geometry" />
        </mxCell>
        <mxCell id="cYOcM08qNs0LMvxDeE_9-13" value="" style="rounded=0;whiteSpace=wrap;html=1;fillColor=#990000;" vertex="1" parent="1">
          <mxGeometry x="210" y="270" width="420" height="40" as="geometry" />
        </mxCell>
        <mxCell id="cYOcM08qNs0LMvxDeE_9-24" value="" style="ellipse;whiteSpace=wrap;html=1;aspect=fixed;fillColor=#ffe6cc;strokeColor=#d79b00;" vertex="1" parent="1">
          <mxGeometry x="380" y="360" width="80" height="80" as="geometry" />
        </mxCell>
        <mxCell id="cYOcM08qNs0LMvxDeE_9-26" value="" style="verticalLabelPosition=bottom;verticalAlign=top;html=1;shape=mxgraph.basic.moon;fillColor=#000000;rotation=105;" vertex="1" parent="1">
          <mxGeometry x="387.5" y="342" width="65" height="80" as="geometry" />
        </mxCell>
        <mxCell id="cYOcM08qNs0LMvxDeE_9-27" value="" style="verticalLabelPosition=bottom;verticalAlign=top;html=1;shape=mxgraph.basic.cone2;dx=0.5;dy=0.9;fillColor=#e1d5e7;strokeColor=#9673a6;" vertex="1" parent="1">
          <mxGeometry x="370" y="440" width="100" height="100" as="geometry" />
        </mxCell>
        <mxCell id="cYOcM08qNs0LMvxDeE_9-30" value="" style="ellipse;whiteSpace=wrap;html=1;fillColor=#FFFFFF;" vertex="1" parent="1">
          <mxGeometry x="390" y="400" width="20" height="10" as="geometry" />
        </mxCell>
        <mxCell id="cYOcM08qNs0LMvxDeE_9-31" value="" style="ellipse;whiteSpace=wrap;html=1;fillColor=#ffffff;" vertex="1" parent="1">
          <mxGeometry x="430" y="400" width="20" height="10" as="geometry" />
        </mxCell>
        <mxCell id="cYOcM08qNs0LMvxDeE_9-32" value="" style="ellipse;whiteSpace=wrap;html=1;fillColor=#000000;" vertex="1" parent="1">
          <mxGeometry x="435" y="400" width="10" height="10" as="geometry" />
        </mxCell>
        <mxCell id="cYOcM08qNs0LMvxDeE_9-33" value="" style="ellipse;whiteSpace=wrap;html=1;fillColor=#000000;" vertex="1" parent="1">
          <mxGeometry x="395" y="400" width="10" height="10" as="geometry" />
        </mxCell>
        <mxCell id="cYOcM08qNs0LMvxDeE_9-37" value="" style="verticalLabelPosition=bottom;verticalAlign=top;html=1;shape=mxgraph.basic.half_circle;fillColor=#FF6666;" vertex="1" parent="1">
          <mxGeometry x="405" y="422" width="30" height="10" as="geometry" />
        </mxCell>
        <mxCell id="cYOcM08qNs0LMvxDeE_9-38" value="" style="verticalLabelPosition=bottom;verticalAlign=top;html=1;shape=mxgraph.basic.heart;fillColor=#FF6666;" vertex="1" parent="1">
          <mxGeometry x="410" y="485" width="20" height="20" as="geometry" />
        </mxCell>
        <mxCell id="cYOcM08qNs0LMvxDeE_9-41" value="" style="verticalLabelPosition=bottom;verticalAlign=top;html=1;shape=mxgraph.basic.star;fillColor=#FF6666;" vertex="1" parent="1">
          <mxGeometry x="385" y="510" width="30" height="20" as="geometry" />
        </mxCell>
        <mxCell id="cYOcM08qNs0LMvxDeE_9-42" value="" style="verticalLabelPosition=bottom;verticalAlign=top;html=1;shape=mxgraph.basic.star;fillColor=#FF6666;" vertex="1" parent="1">
          <mxGeometry x="430" y="505" width="30" height="25" as="geometry" />
        </mxCell>
        <mxCell id="cYOcM08qNs0LMvxDeE_9-43" value="" style="verticalLabelPosition=bottom;verticalAlign=top;html=1;shape=mxgraph.basic.star;fillColor=#FF6666;" vertex="1" parent="1">
          <mxGeometry x="410" y="460" width="20" height="15" as="geometry" />
        </mxCell>
        <mxCell id="cYOcM08qNs0LMvxDeE_9-44" value="" style="shape=tape;whiteSpace=wrap;html=1;fillColor=#FF0000;" vertex="1" parent="1">
          <mxGeometry x="50" y="210" width="120" height="100" as="geometry" />
        </mxCell>
        <mxCell id="cYOcM08qNs0LMvxDeE_9-45" value="" style="endArrow=none;html=1;entryX=1;entryY=0.22;entryDx=0;entryDy=0;entryPerimeter=0;strokeWidth=4;" edge="1" parent="1" target="cYOcM08qNs0LMvxDeE_9-44">
          <mxGeometry width="50" height="50" relative="1" as="geometry">
            <mxPoint x="170" y="610" as="sourcePoint" />
            <mxPoint x="500" y="270" as="targetPoint" />
          </mxGeometry>
        </mxCell>
        <mxCell id="cYOcM08qNs0LMvxDeE_9-47" value="" style="verticalLabelPosition=bottom;verticalAlign=top;html=1;shape=mxgraph.basic.star;fillColor=#fff2cc;strokeColor=#d6b656;" vertex="1" parent="1">
          <mxGeometry x="140" y="230" width="20" height="15" as="geometry" />
        </mxCell>
        <mxCell id="cYOcM08qNs0LMvxDeE_9-48" value="" style="verticalLabelPosition=bottom;verticalAlign=top;html=1;shape=mxgraph.basic.star;fillColor=#fff2cc;strokeColor=#d6b656;" vertex="1" parent="1">
          <mxGeometry x="130" y="230" width="10" height="5" as="geometry" />
        </mxCell>
        <mxCell id="cYOcM08qNs0LMvxDeE_9-55" value="" style="verticalLabelPosition=bottom;verticalAlign=top;html=1;shape=mxgraph.basic.star;fillColor=#fff2cc;strokeColor=#d6b656;" vertex="1" parent="1">
          <mxGeometry x="130" y="245" width="10" height="5" as="geometry" />
        </mxCell>
        <mxCell id="cYOcM08qNs0LMvxDeE_9-56" value="" style="verticalLabelPosition=bottom;verticalAlign=top;html=1;shape=mxgraph.basic.star;fillColor=#fff2cc;strokeColor=#d6b656;" vertex="1" parent="1">
          <mxGeometry x="140" y="255.5" width="10" height="5" as="geometry" />
        </mxCell>
        <mxCell id="cYOcM08qNs0LMvxDeE_9-57" value="" style="verticalLabelPosition=bottom;verticalAlign=top;html=1;shape=mxgraph.basic.star;fillColor=#fff2cc;strokeColor=#d6b656;" vertex="1" parent="1">
          <mxGeometry x="155" y="257.5" width="10" height="5" as="geometry" />
        </mxCell>
        <mxCell id="cYOcM08qNs0LMvxDeE_9-58" value="" style="verticalLabelPosition=bottom;verticalAlign=top;html=1;shape=mxgraph.basic.heart;fillColor=#FF0000;" vertex="1" parent="1">
          <mxGeometry x="370" y="180" width="100" height="100" as="geometry" />
        </mxCell>
        <mxCell id="cYOcM08qNs0LMvxDeE_9-61" value="" style="verticalLabelPosition=bottom;verticalAlign=top;html=1;shape=mxgraph.basic.half_circle;fillColor=#f8cecc;rotation=-180;strokeColor=#b85450;" vertex="1" parent="1">
          <mxGeometry x="360" y="600" width="45" height="10" as="geometry" />
        </mxCell>
        <mxCell id="cYOcM08qNs0LMvxDeE_9-62" value="" style="verticalLabelPosition=bottom;verticalAlign=top;html=1;shape=mxgraph.basic.half_circle;fillColor=#f8cecc;rotation=-180;strokeColor=#b85450;" vertex="1" parent="1">
          <mxGeometry x="410" y="600" width="45" height="10" as="geometry" />
        </mxCell>
        <mxCell id="cYOcM08qNs0LMvxDeE_9-65" value="" style="verticalLabelPosition=bottom;verticalAlign=top;html=1;shape=mxgraph.basic.drop;fillColor=#000000;rotation=30;strokeColor=none;" vertex="1" parent="1">
          <mxGeometry x="366" y="367.5" width="21.5" height="75" as="geometry" />
        </mxCell>
      </root>
    </mxGraphModel>
  </diagram>
</mxfile>
